<?xml version="1.0" encoding="UTF-8" standalone="no"?>
<!DOCTYPE svg PUBLIC "-//W3C//DTD SVG 1.1//EN" "http://www.w3.org/Graphics/SVG/1.1/DTD/svg11.dtd">
<svg width="100%" height="100%" viewBox="0 0 291 300" version="1.1" xmlns="http://www.w3.org/2000/svg" xmlns:xlink="http://www.w3.org/1999/xlink" xml:space="preserve" xmlns:serif="http://www.serif.com/" style="fill-rule:evenodd;clip-rule:evenodd;stroke-linejoin:round;stroke-miterlimit:2;">
    <g transform="matrix(1,0,0,1,-5884.7152,-106.389067)">
        <g transform="matrix(2.666667,0,0,2.666667,4098,0)">
            <g transform="matrix(1,0,0,1,722.8574,152.105)">
                <path d="M0,-22.443C-4.528,-22.328 -7.961,-22.472 -9.546,-20.768C-11.251,-19.183 -11.106,-15.749 -11.222,-11.221C-11.17,-9.206 -11.17,-7.405 -11.037,-5.889C-10.966,-5.095 -10.858,-4.379 -10.687,-3.75C-10.685,-3.743 -10.683,-3.737 -10.681,-3.729C-10.666,-3.677 -10.653,-3.625 -10.637,-3.575C-10.401,-2.789 -10.056,-2.15 -9.547,-1.675C-9.091,-1.185 -8.483,-0.848 -7.74,-0.613C-7.704,-0.604 -7.665,-0.592 -7.631,-0.581C-7.629,-0.579 -7.629,-0.579 -7.627,-0.579C-7.521,-0.546 -7.411,-0.517 -7.298,-0.488C-7.294,-0.488 -7.29,-0.486 -7.285,-0.484C-6.761,-0.357 -6.18,-0.269 -5.548,-0.205C-5.467,-0.198 -5.386,-0.19 -5.303,-0.182C-3.793,-0.052 -2.005,-0.051 0,-0.001C4.526,-0.117 7.959,0.029 9.546,-1.675C11.25,-3.262 11.104,-6.695 11.22,-11.221C11.104,-15.749 11.251,-19.183 9.546,-20.768C7.96,-22.472 4.526,-22.328 0,-22.443" style="fill:rgb(255,99,118);fill-rule:nonzero;"/>
            </g>
            <g transform="matrix(1,0,0,1,677.9742,103.953)">
                <path d="M0,-15.908C-3.21,-15.826 -5.644,-15.93 -6.768,-14.722C-7.976,-13.597 -7.874,-11.162 -7.956,-7.954C-7.874,-4.744 -7.976,-2.31 -6.768,-1.186C-5.644,0.022 -3.21,-0.08 0,0.002C1.429,-0.035 2.705,-0.035 3.78,-0.129C4.343,-0.179 4.85,-0.256 5.296,-0.377C5.302,-0.378 5.306,-0.38 5.311,-0.381C5.348,-0.392 5.385,-0.402 5.42,-0.413C5.978,-0.58 6.431,-0.824 6.768,-1.186C7.116,-1.509 7.354,-1.94 7.521,-2.466C7.527,-2.492 7.536,-2.519 7.544,-2.544C7.545,-2.545 7.545,-2.545 7.545,-2.547C7.568,-2.622 7.589,-2.699 7.609,-2.78C7.609,-2.783 7.611,-2.785 7.612,-2.789C7.702,-3.16 7.765,-3.572 7.81,-4.021C7.815,-4.078 7.821,-4.135 7.826,-4.194C7.919,-5.265 7.919,-6.533 7.954,-7.954C7.872,-11.162 7.976,-13.597 6.768,-14.722C5.643,-15.93 3.209,-15.826 0,-15.908" style="fill:rgb(255,204,204);fill-rule:nonzero;"/>
            </g>
            <g transform="matrix(1,0,0,1,700.4155,127.9211)">
                <path d="M0,-18.961C-3.826,-18.863 -6.727,-18.987 -8.067,-17.547C-9.507,-16.206 -9.385,-13.305 -9.482,-9.48C-9.385,-5.654 -9.507,-2.753 -8.067,-1.414C-6.727,0.026 -3.826,-0.096 0,0.002C1.703,-0.042 3.225,-0.042 4.505,-0.154C5.177,-0.214 5.781,-0.305 6.313,-0.45C6.319,-0.452 6.324,-0.453 6.331,-0.455C6.374,-0.468 6.418,-0.479 6.461,-0.492C7.125,-0.692 7.665,-0.983 8.066,-1.414C8.481,-1.799 8.765,-2.313 8.964,-2.94C8.972,-2.971 8.982,-3.003 8.991,-3.033C8.993,-3.034 8.993,-3.034 8.993,-3.036C9.021,-3.125 9.045,-3.218 9.069,-3.314C9.069,-3.317 9.071,-3.32 9.073,-3.325C9.18,-3.767 9.255,-4.258 9.308,-4.793C9.315,-4.861 9.321,-4.929 9.328,-4.999C9.438,-6.275 9.438,-7.787 9.481,-9.48C9.383,-13.305 9.507,-16.206 8.067,-17.547C6.726,-18.987 3.824,-18.863 0,-18.961" style="fill:rgb(255,147,159);fill-rule:nonzero;"/>
            </g>
            <g transform="matrix(1,0,0,1,767.7396,95.1501)">
                <path d="M0,1.697C-16.852,1.697 -21.589,6.442 -21.589,23.294L-23.293,23.294C-23.293,6.442 -28.033,1.701 -44.886,1.701L-44.886,-0.003C-28.033,-0.003 -23.289,-4.74 -23.289,-21.592L-21.589,-21.592C-21.589,-4.74 -16.852,-0.003 0,-0.003L0,1.697ZM9.548,-8.695C7.961,-10.399 4.526,-10.254 0,-10.371C-4.526,-10.485 -7.961,-10.34 -9.548,-12.044C-11.252,-13.631 -11.103,-17.062 -11.22,-21.592C-11.279,-23.855 -11.271,-25.844 -11.463,-27.466C-11.654,-29.092 -12.041,-30.346 -12.893,-31.14C-14.484,-32.844 -17.915,-32.699 -22.441,-32.812C-26.966,-32.699 -30.402,-32.844 -31.989,-31.14C-33.689,-29.553 -33.548,-26.118 -33.661,-21.592C-33.778,-17.066 -33.634,-13.631 -35.338,-12.044C-36.925,-10.34 -40.352,-10.489 -44.882,-10.371C-45.644,-10.352 -46.375,-10.34 -47.07,-10.325C-52.979,-10.743 -57.845,-13.135 -57.845,-21.592C-57.892,-23.503 -57.884,-25.187 -58.044,-26.559C-58.209,-27.927 -58.537,-28.99 -59.256,-29.658C-60.596,-31.1 -63.5,-30.975 -67.322,-31.073C-71.149,-30.975 -74.052,-31.1 -75.389,-29.658C-76.831,-28.318 -76.71,-25.418 -76.808,-21.592C-76.71,-17.766 -76.831,-14.866 -75.389,-13.525C-74.052,-12.087 -71.149,-12.208 -67.322,-12.111C-58.865,-12.111 -56.473,-7.241 -56.059,-1.328C-56.071,-0.632 -56.086,0.091 -56.106,0.853C-56.051,2.866 -56.051,4.667 -55.918,6.184C-55.848,6.977 -55.742,7.692 -55.57,8.321C-55.567,8.329 -55.567,8.333 -55.563,8.345C-55.547,8.396 -55.535,8.446 -55.52,8.497C-55.285,9.283 -54.937,9.924 -54.429,10.397C-53.972,10.885 -53.366,11.225 -52.62,11.46C-52.585,11.471 -52.549,11.479 -52.51,11.491C-52.401,11.526 -52.292,11.553 -52.182,11.585C-52.174,11.585 -52.17,11.585 -52.167,11.589C-51.643,11.714 -51.064,11.804 -50.431,11.866C-50.349,11.874 -50.267,11.882 -50.185,11.89C-48.676,12.019 -46.887,12.019 -44.882,12.069C-40.356,12.187 -36.925,12.042 -35.338,13.746C-33.634,15.333 -33.778,18.76 -33.661,23.29C-33.548,27.819 -33.693,31.251 -31.989,32.837C-30.402,34.541 -26.966,34.397 -22.441,34.51C-20.424,34.459 -18.626,34.459 -17.106,34.326C-16.317,34.256 -15.602,34.147 -14.968,33.979C-14.961,33.975 -14.957,33.971 -14.949,33.971C-14.894,33.955 -14.847,33.943 -14.796,33.928C-14.011,33.693 -13.37,33.345 -12.893,32.837C-12.405,32.38 -12.068,31.77 -11.83,31.032C-11.822,30.997 -11.811,30.958 -11.799,30.922L-11.799,30.918C-11.764,30.813 -11.736,30.704 -11.709,30.59C-11.709,30.582 -11.705,30.582 -11.705,30.575C-11.576,30.051 -11.49,29.472 -11.424,28.839C-11.42,28.757 -11.408,28.675 -11.4,28.593C-11.271,27.085 -11.271,25.295 -11.22,23.29C-11.107,18.76 -11.252,15.333 -9.548,13.746C-7.961,12.042 -4.53,12.187 0,12.069C4.526,11.956 7.961,12.101 9.548,10.397C11.252,8.81 11.107,5.379 11.22,0.853C11.107,-3.677 11.252,-7.112 9.548,-8.695" style="fill:rgb(255,53,106);fill-rule:nonzero;"/>
            </g>
            <g transform="matrix(1,0,0,1,712.1703,43.6479)">
                <path d="M0,14.941C0.002,14.949 0.004,14.954 0.006,14.962C0.021,15.014 0.035,15.066 0.05,15.116C0.287,15.903 0.631,16.541 1.141,17.017C1.596,17.507 2.204,17.844 2.947,18.078C2.983,18.088 3.022,18.099 3.056,18.111C3.058,18.113 3.058,18.113 3.06,18.113C3.166,18.146 3.276,18.174 3.389,18.203C3.393,18.203 3.397,18.205 3.403,18.207C3.926,18.334 4.507,18.423 5.14,18.486C5.22,18.494 5.301,18.501 5.384,18.509C6.894,18.64 8.683,18.64 10.687,18.69C15.213,18.575 18.646,18.721 20.233,17.017C21.938,15.43 21.791,11.996 21.907,7.47C21.792,2.942 21.938,-0.491 20.234,-2.076C18.647,-3.78 15.213,-3.636 10.687,-3.752C6.159,-3.636 2.726,-3.78 1.141,-2.076C-0.563,-0.491 -0.419,2.942 -0.535,7.47C-0.483,9.486 -0.483,11.286 -0.35,12.802C-0.279,13.596 -0.171,14.312 0,14.941" style="fill:rgb(255,99,118);fill-rule:nonzero;"/>
            </g>
        </g>
    </g>
</svg>
