<svg width="400" height="400" viewBox="0 0 400 400" fill="none" xmlns="http://www.w3.org/2000/svg">
<path d="M80.5934 21.0048C66.3027 23.2736 55.2917 35.8971 55.2917 51.0293C55.2917 57.286 57.6061 62.9431 60.1866 68.1404C60.8858 69.5497 61.5457 70.889 62.3829 72.3682C63.0329 73.5077 63.6928 74.6671 64.3526 75.8465C64.3822 75.8664 64.4216 75.8964 64.4511 75.9164C63.3382 74.1773 61.9692 70.3693 63.7223 67.3109C65.2292 64.6822 68.371 64.9721 69.9271 64.9721C107.52 64.9721 228.859 64.9721 228.859 64.9721C240.746 64.8821 250.359 55.0772 250.359 42.9834C250.359 30.8897 240.756 21.1047 228.868 21.0148C228.868 21.0148 121.919 20.9848 80.6033 21.0148L80.5934 21.0048Z" fill="url(#paint0_linear_1_2)"/>
<path d="M354.993 130.578L354.954 130.548C348.641 140.103 336.024 143.162 326.087 137.305C316.149 131.448 312.525 118.804 317.577 108.51L317.538 108.48C317.538 108.48 332.341 82.8428 337.324 74.1873C339.422 70.5492 337.807 65.5018 332.666 65.5018C322.531 65.5018 292.896 65.4618 292.896 65.4618V65.4118C281.59 64.6722 272.637 55.1372 272.637 43.4732C272.637 31.8092 281.59 22.2741 292.896 21.5345V21.4845C292.896 21.4845 355.87 21.4845 376.858 21.4845C381.595 21.4845 391.592 23.5734 396.851 32.7787C401.224 40.4247 401.303 49.0703 395.413 59.5449L355.013 130.578H354.993Z" fill="url(#paint1_linear_1_2)"/>
<path d="M315.174 157.374C305.246 151.507 291.891 154.056 286.11 163.951C280.999 172.706 209.771 297.362 204.67 306.248C202.079 310.765 196.968 309.636 194.929 305.968C191.265 299.391 104.723 146.94 62.3926 72.3882C61.5555 70.919 60.8956 69.5697 60.1963 68.1604C57.6258 62.9631 55.3015 57.296 55.3015 51.0493C55.3015 35.8971 66.3125 23.2736 80.5934 21.0048C80.6131 21.0048 80.6229 21.0048 80.6229 21.0048C74.6151 20.9848 29.5368 21.0348 21.5099 21.0248C18.378 21.0248 14.074 22.7239 11.1686 24.403C2.23565 29.5404 -3.0532 43.3832 1.90079 53.7279L178.156 364.258C184.115 374.702 191.512 378.98 200.228 379C210.707 379.02 217.522 371.314 219.906 367.156C230.474 348.746 323.467 186.04 323.467 186.04C328.529 175.755 325.102 163.251 315.174 157.384V157.374Z" fill="url(#paint2_linear_1_2)"/>
<path d="M252.575 130.698C253.579 129.269 254.17 127.53 254.17 125.651C254.17 120.833 250.329 116.935 245.582 116.935C245.365 116.935 245.158 116.955 244.942 116.965H162.172C162.054 116.965 161.926 116.965 161.807 116.965C156.991 116.965 153.081 121.133 153.081 126.27C153.081 128.289 153.692 130.148 154.716 131.678V131.698L196.485 203.99C196.643 204.31 196.82 204.62 197.017 204.92L197.066 205H197.076C198.524 207.129 200.878 208.508 203.547 208.508C206.787 208.508 209.574 206.469 210.815 203.531L252.575 130.708V130.698Z" fill="url(#paint3_linear_1_2)"/>
<defs>
<linearGradient id="paint0_linear_1_2" x1="55.3015" y1="48.4606" x2="250.369" y2="48.4606" gradientUnits="userSpaceOnUse">
<stop stop-color="#6501FF"/>
<stop offset="1" stop-color="#976BFF"/>
</linearGradient>
<linearGradient id="paint1_linear_1_2" x1="336.3" y1="140.283" x2="336.3" y2="21.4745" gradientUnits="userSpaceOnUse">
<stop stop-color="#FF6E06"/>
<stop offset="1" stop-color="#FFA025"/>
</linearGradient>
<linearGradient id="paint2_linear_1_2" x1="285.027" y1="329.486" x2="93.7656" y2="-3.73982" gradientUnits="userSpaceOnUse">
<stop stop-color="#6501FF"/>
<stop offset="1" stop-color="#976BFF"/>
</linearGradient>
<linearGradient id="paint3_linear_1_2" x1="203.626" y1="208.498" x2="203.626" y2="116.935" gradientUnits="userSpaceOnUse">
<stop stop-color="#FF6E06"/>
<stop offset="1" stop-color="#FFA025"/>
</linearGradient>
</defs>
</svg>
