<svg width="200" height="200" viewBox="0 0 200 200" fill="none" xmlns="http://www.w3.org/2000/svg">
<path d="M55.665 35.811C43.1226 52.0821 46.2018 77.3361 50.3684 86.2344C52.9814 91.8136 58.1227 104.286 57.7837 109.54C57.36 116.108 55.0294 122.04 48.0379 129.667C40.9057 137.448 35.1767 136.386 34.6459 141.517C34.0104 147.662 42.6969 149.992 51.2148 146.602C56.5124 144.494 61.0802 140.19 65.1989 136.009C67.6646 133.506 69.9037 130.489 71.4239 128.259C71.6591 127.914 72.1824 128.072 72.1578 128.489C71.9024 132.816 70.2338 139.595 66.9497 146.602C63.2921 154.406 59.4341 160.797 54.8176 164.399C51.7466 166.795 48.4171 168.001 49.0527 170.755C51.3752 180.819 69.46 170.58 75.7476 163.339C82.7392 155.289 85.2615 151.928 88.6714 144.272C90.3063 140.601 92.5476 134.564 93.7365 130.923C93.884 130.472 94.612 130.545 94.6471 131.019C95.2224 138.784 94.8805 146.976 93.5887 155.254C92.1615 164.399 90.0429 172.746 88.9836 176.737C87.9242 180.727 85.3351 185.338 88.9836 186.694C93.5445 188.389 99.6807 186.454 103.814 180.254C107.204 175.169 110.957 166.792 112.501 159.915C114.644 150.364 116.11 141.455 116.38 132.126C116.395 131.633 117.055 131.555 117.162 132.036C117.976 135.703 118.791 140.184 119.605 142.789C121.128 147.662 124.978 155.149 130.509 161.221C136.653 167.966 147.101 173.421 151.907 170.755C157.317 167.754 154.717 163.517 149.153 158.856C143.589 154.195 142.585 151.44 140.156 147.662C137.155 142.992 135.305 135.462 134.634 131.025C134.575 130.635 135.017 130.422 135.267 130.729C136.739 132.532 137.601 134.777 141.47 137.28C144.744 139.399 152.122 140.034 154.563 140.034C159.012 140.034 165.107 138.551 166.004 134.526C166.9 130.501 162.19 131.136 157.317 129.017C152.273 126.824 146.343 121.602 144.012 111.009C141.682 100.416 147.632 88.9751 150.156 74.992C152.911 59.7378 148.839 40.0648 137.021 29.4535C122.614 16.5175 104.606 15.3413 95.7073 15.6833C90.1988 15.895 71.3429 15.472 55.665 35.811Z" fill="black" style="fill:black;fill-opacity:1;"/>
<path d="M80 61.25C80 66.7728 76.7593 71.25 71.25 71.25C65.7407 71.25 62.5 66.7728 62.5 61.25C62.5 55.7272 65.4167 51.25 71.25 51.25C77.0833 51.25 80 55.7272 80 61.25Z" fill="white" style="fill:white;fill-opacity:1;"/>
<path d="M119.5 61.25C119.5 66.7728 116.259 71.25 110.75 71.25C105.241 71.25 102 66.7728 102 61.25C102 55.7272 104.917 51.25 110.75 51.25C116.583 51.25 119.5 55.7272 119.5 61.25Z" fill="white" style="fill:white;fill-opacity:1;"/>
</svg>
